<svg width="417" height="170" xmlns="http://www.w3.org/2000/svg" xmlns:xlink="http://www.w3.org/1999/xlink" overflow="hidden"><defs><clipPath id="clip0"><path d="M512 303 929 303 929 473 512 473Z" fill-rule="evenodd" clip-rule="evenodd"/></clipPath><clipPath id="clip1"><path d="M544 312 640 312 640 408 544 408Z" fill-rule="evenodd" clip-rule="evenodd"/></clipPath><clipPath id="clip2"><path d="M544 312 640 312 640 408 544 408Z" fill-rule="evenodd" clip-rule="evenodd"/></clipPath><clipPath id="clip3"><path d="M544 312 640 312 640 408 544 408Z" fill-rule="evenodd" clip-rule="evenodd"/></clipPath><clipPath id="clip4"><path d="M781 312 877 312 877 408 781 408Z" fill-rule="evenodd" clip-rule="evenodd"/></clipPath><clipPath id="clip5"><path d="M781 312 877 312 877 408 781 408Z" fill-rule="evenodd" clip-rule="evenodd"/></clipPath><clipPath id="clip6"><path d="M781 312 877 312 877 408 781 408Z" fill-rule="evenodd" clip-rule="evenodd"/></clipPath></defs><g clip-path="url(#clip0)" transform="translate(-512 -303)"><g clip-path="url(#clip1)"><g clip-path="url(#clip2)"><g clip-path="url(#clip3)"><path d="M620 372 564 372 564 338 620 338 620 372ZM626 336C626 333.8 624.2 332 622 332L562 332C559.8 332 558 333.8 558 336L558 378 626 378 626 336Z"/><path d="M598 382 598 383C598 383.6 597.6 384 597 384L587 384C586.4 384 586 383.6 586 383L586 382 546 382 546 384C546 386.2 547.8 388 550 388L634 388C636.2 388 638 386.2 638 384L638 382 598 382Z"/></g></g></g><g clip-path="url(#clip4)"><g clip-path="url(#clip5)"><g clip-path="url(#clip6)"><path d="M826 379 832 379 832 387 826 387Z"/><path d="M826 391 832 391 832 397 826 397Z"/><path d="M836 391 865 391 865 397 836 397Z"/><path d="M793 391 822 391 822 397 793 397Z"/><path d="M857.42 363 800.58 363C798.603 363 797 364.603 797 366.58L797 375.42C797 377.397 798.603 379 800.58 379L857.42 379C859.397 379 861 377.397 861 375.42L861 366.58C861 364.603 859.397 363 857.42 363ZM807 373C805.895 373 805 372.105 805 371 805 369.895 805.895 369 807 369 808.105 369 809 369.895 809 371 809 372.105 808.105 373 807 373ZM817 373C815.895 373 815 372.105 815 371 815 369.895 815.895 369 817 369 818.105 369 819 369.895 819 371 819 372.105 818.105 373 817 373ZM827 373C825.895 373 825 372.105 825 371 825 369.895 825.895 369 827 369 828.105 369 829 369.895 829 371 829 372.105 828.105 373 827 373Z"/><path d="M857.42 343 800.58 343C798.603 343 797 344.603 797 346.58L797 355.42C797 357.397 798.603 359 800.58 359L857.42 359C859.397 359 861 357.397 861 355.42L861 346.58C861 344.603 859.397 343 857.42 343ZM807 353C805.895 353 805 352.105 805 351 805 349.895 805.895 349 807 349 808.105 349 809 349.895 809 351 809 352.105 808.105 353 807 353ZM817 353C815.895 353 815 352.105 815 351 815 349.895 815.895 349 817 349 818.105 349 819 349.895 819 351 819 352.105 818.105 353 817 353ZM827 353C825.895 353 825 352.105 825 351 825 349.895 825.895 349 827 349 828.105 349 829 349.895 829 351 829 352.105 828.105 353 827 353Z"/><path d="M857.42 323 800.58 323C798.603 323 797 324.603 797 326.58L797 335.42C797 337.397 798.603 339 800.58 339L857.42 339C859.397 339 861 337.397 861 335.42L861 326.58C861 324.603 859.397 323 857.42 323ZM807 333C805.895 333 805 332.105 805 331 805 329.895 805.895 329 807 329 808.105 329 809 329.895 809 331 809 332.105 808.105 333 807 333ZM817 333C815.895 333 815 332.105 815 331 815 329.895 815.895 329 817 329 818.105 329 819 329.895 819 331 819 332.105 818.105 333 817 333ZM827 333C825.895 333 825 332.105 825 331 825 329.895 825.895 329 827 329 828.105 329 829 329.895 829 331 829 332.105 828.105 333 827 333Z"/></g></g></g><path d="M667 341 756.973 341 756.973 343 667 343ZM755.64 338 763.64 342 755.64 346Z" fill="#222A35"/><path d="M1.08637e-06-1 89.9733-0.999902 89.9733 1.0001-1.08637e-06 1ZM88.64-3.9999 96.64 0.000104987 88.64 4.0001Z" fill="#222A35" transform="matrix(-1 -8.74228e-08 -8.74228e-08 1 763.64 369)"/><text font-family="Calibri,Calibri_MSFontService,sans-serif" font-weight="400" font-size="24" transform="translate(691.442 333)">HTTP<tspan x="60.5582" y="118">Modelon Impact</tspan><tspan x="-164.145" y="118">Python</tspan><tspan x="-89.2179" y="118">clien</tspan><tspan x="-43.6046" y="118">t</tspan></text></g></svg>